<?xml version="1.0" encoding="utf-8"?>
<!-- Generator: Adobe Illustrator 27.5.0, SVG Export Plug-In . SVG Version: 6.00 Build 0)  -->
<svg version="1.1" xmlns="http://www.w3.org/2000/svg" xmlns:xlink="http://www.w3.org/1999/xlink" x="0px" y="0px"
	 viewBox="0 0 140 92" style="enable-background:new 0 0 140 92;" xml:space="preserve">
<style type="text/css">
	.st0{fill:#282828;}
	.st1{fill:none;stroke:#B63E3E;stroke-linecap:round;stroke-miterlimit:10;}
	.st2{fill:none;stroke:#B63E3E;stroke-linecap:round;stroke-miterlimit:10;stroke-dasharray:0,6.0642;}
	.st3{fill:none;stroke:#B63E3E;stroke-linecap:round;stroke-miterlimit:10;stroke-dasharray:0,6.089;}
	.st4{fill:#FFFFFF;}
	.st5{fill:none;}
	.st6{font-family:'Gladifilthefte';}
	.st7{font-size:27.8052px;}
	.st8{fill:#232323;}
	.st9{fill:#B63E3E;}
	.st10{font-family:'Aleo-Light';}
	.st11{font-size:4.248px;}
</style>
<g id="Background">
</g>
<g id="Objects">
	<g>
		<g>
			<path class="st0" d="M69.4,87.2L33.6,66.6V25.4L69.4,4.8l35.8,20.6v41.2L69.4,87.2z M35.6,65.4l33.8,19.4l33.8-19.4V26.6
				L69.4,7.2L35.6,26.6V65.4z"/>
		</g>
		<g>
			<g>
				<line class="st1" x1="37.4" y1="27.7" x2="37.4" y2="27.7"/>
				<line class="st2" x1="42.6" y1="24.7" x2="66.2" y2="11"/>
				<line class="st1" x1="68.8" y1="9.5" x2="68.8" y2="9.5"/>
				<line class="st2" x1="74.1" y1="12.5" x2="97.7" y2="26.2"/>
				<line class="st1" x1="100.3" y1="27.7" x2="100.3" y2="27.7"/>
				<line class="st3" x1="100.3" y1="33.8" x2="100.3" y2="61.2"/>
				<line class="st1" x1="100.3" y1="64.3" x2="100.3" y2="64.3"/>
				<line class="st2" x1="95.1" y1="67.3" x2="71.5" y2="81"/>
				<line class="st1" x1="68.8" y1="82.5" x2="68.8" y2="82.5"/>
				<line class="st2" x1="63.6" y1="79.5" x2="40" y2="65.8"/>
				<line class="st1" x1="37.4" y1="64.3" x2="37.4" y2="64.3"/>
				<line class="st3" x1="37.4" y1="58.2" x2="37.4" y2="30.8"/>
			</g>
		</g>
		<polygon class="st4" points="120.4,58.7 28.8,58.7 26.4,58.7 18.4,58.7 18.4,32 26.4,32 28.8,32 112.3,32 120.4,32 		"/>
		<rect x="22" y="33.2" class="st5" width="99.6" height="25.9"/>
		<text transform="matrix(1 0 0 1 28.027 54.7778)" class="st0 st6 st7">Rockartie</text>
		<line class="st1" x1="50.6" y1="29.8" x2="86.9" y2="29.8"/>
		<line class="st1" x1="50.6" y1="60.7" x2="86.9" y2="60.7"/>
		<g>
			<g>
				<path class="st8" d="M58.3,23.9c0.4,0,0.7,0.1,0.8,0.4c0.1,0.3,0.1,0.5,0,0.8c-0.1,0.3-0.3,0.5-0.7,0.7
					c-0.1,0.1-0.3,0.1-0.4,0.2c-0.2,0.1-0.3,0.1-0.4,0.1c-0.1,0-0.1,0-0.1,0c-0.2-0.3-0.3-0.4-0.4-0.7c0.1-0.1,0.1-0.1,0.2-0.1
					c0.1,0,0.1,0,0.1,0c0,0,0.1,0.1,0.1,0.2c0.1,0.1,0.1,0.2,0.1,0.2c0.3-0.1,0.5-0.1,0.6-0.2c0.1-0.1,0.2-0.1,0.3-0.2
					c0.1-0.1,0.1-0.1,0.2-0.2c0.1-0.2,0.1-0.3,0-0.5c-0.1-0.2-0.2-0.2-0.4-0.2c-0.1,0-0.2,0-0.3,0c-0.3,0.1-0.6,0.1-0.7,0.1
					s-0.2,0-0.3,0c-0.2,0-0.4-0.2-0.6-0.4c-0.1-0.2-0.1-0.4,0-0.7c0.1-0.3,0.3-0.5,0.7-0.7c0.3-0.2,0.7-0.3,1.1-0.3
					c0.1,0.3,0.2,0.4,0.3,0.7c-0.1,0-0.1,0.1-0.2,0.1c-0.1,0-0.1,0-0.1,0c0,0-0.1-0.1-0.2-0.4c-0.2,0.1-0.5,0.1-0.6,0.2
					c-0.2,0.1-0.4,0.2-0.4,0.4c-0.1,0.1-0.1,0.3,0,0.4c0.1,0.1,0.2,0.2,0.4,0.2c0.1,0,0.2,0,0.3,0C57.9,23.9,58.2,23.9,58.3,23.9
					C58.3,23.9,58.3,23.9,58.3,23.9z"/>
				<path class="st8" d="M62.8,20.6c0.1,0.3,0.1,0.4,0.2,0.7c-0.1,0-0.2,0-0.3,0.1c-0.1,0-0.1,0-0.1,0c0,0-0.1-0.1-0.1-0.3
					c-0.4,0.1-0.5,0.1-0.9,0.3c0.3,1,0.5,1.5,0.8,2.5c0,0,0,0,0.1,0c0.1,0,0.2,0,0.2,0c0,0,0.1,0,0.1,0.1c0,0.1,0,0.1,0.1,0.2
					c-0.5,0.1-0.7,0.2-1.1,0.4c0-0.1,0-0.1-0.1-0.2c0,0,0-0.1,0-0.1c0,0,0.1-0.1,0.2-0.1c-0.3-1-0.5-1.5-0.8-2.5
					c-0.4,0.1-0.5,0.2-0.9,0.3c0,0.2,0.1,0.3,0.1,0.3c0,0,0,0.1-0.1,0.1c-0.1,0-0.1,0.1-0.2,0.1c-0.1-0.3-0.2-0.4-0.3-0.7
					c1.1-0.4,1.7-0.6,2.9-0.9C62.6,20.6,62.6,20.6,62.8,20.6C62.8,20.6,62.8,20.6,62.8,20.6z"/>
				<path class="st8" d="M68.2,19.9c0,0.1,0,0.1,0,0.2c0,0,0,0.1-0.1,0.1c-0.1,0-0.2,0-0.3,0.1c0,0.7,0,1,0.1,1.7
					c0,0.4-0.1,0.7-0.3,1c-0.2,0.3-0.6,0.4-1,0.5c-0.4,0-0.8,0-1.1-0.3c-0.3-0.2-0.5-0.5-0.5-0.9c-0.1-0.7-0.2-1-0.3-1.7
					c-0.2,0-0.3,0-0.3,0c-0.1,0-0.1,0-0.1-0.1c0-0.1,0-0.1,0-0.2c0.6-0.1,0.8-0.1,1.4-0.2c0,0.1,0,0.1,0,0.2c0,0,0,0.1-0.1,0.1
					c0,0-0.1,0-0.4,0.1c0.1,0.7,0.1,1,0.2,1.7c0,0.3,0.2,0.5,0.3,0.6c0.2,0.2,0.4,0.2,0.7,0.2c0.3,0,0.5-0.1,0.7-0.3
					c0.2-0.2,0.2-0.4,0.2-0.7c0-0.7-0.1-1-0.1-1.7c-0.2,0-0.3,0-0.4,0c-0.1,0-0.1,0-0.1-0.1c0-0.1,0-0.1,0-0.2c0.2,0,0.3,0,0.5,0
					c0.2,0,0.3,0,0.5,0C68,19.9,68.1,19.9,68.2,19.9z"/>
				<path class="st8" d="M73,22.6c-0.1,0.2-0.3,0.3-0.4,0.5c-0.4,0.2-0.8,0.3-1.3,0.3c-0.6-0.1-1-0.1-1.6-0.1c0-0.1,0-0.1,0-0.2
					c0,0,0-0.1,0.1-0.1c0.1,0,0.2,0,0.3,0c0.1-1.1,0.1-1.6,0.2-2.6c-0.2,0-0.3-0.1-0.3-0.1c-0.1,0-0.1,0-0.1-0.1c0-0.1,0-0.1,0-0.2
					c0.7,0,1.1,0.1,1.8,0.1c0.6,0.1,1,0.3,1.3,0.6c0.3,0.4,0.4,0.8,0.3,1.3C73.3,22.2,73.2,22.4,73,22.6z M72.8,21.3
					c0-0.2-0.1-0.3-0.2-0.4c-0.2-0.3-0.5-0.4-1-0.5c-0.4,0-0.5-0.1-0.9-0.1c-0.1,1-0.1,1.6-0.2,2.6c0.3,0,0.5,0,0.8,0.1
					c0.4,0,0.7,0,1-0.2s0.4-0.5,0.5-0.9C72.8,21.7,72.8,21.5,72.8,21.3z"/>
				<path class="st8" d="M76.1,21.3c-0.3,1-0.5,1.5-0.8,2.5c0.1,0.1,0.2,0.1,0.3,0.1c0,0,0,0.1,0,0.1c0,0.1,0,0.1-0.1,0.2
					c-0.4-0.1-0.7-0.2-1.1-0.3c0-0.1,0-0.1,0.1-0.2c0,0,0-0.1,0.1-0.1c0.1,0,0.2,0,0.3,0c0.3-1,0.4-1.5,0.7-2.5
					C75.4,21,75.3,21,75.2,21s-0.1-0.1,0-0.1c0-0.1,0-0.1,0-0.2c0.5,0.1,0.8,0.2,1.3,0.4c0,0.1,0,0.1-0.1,0.2c0,0-0.1,0.1-0.1,0.1
					C76.2,21.3,76.2,21.3,76.1,21.3z"/>
				<path class="st8" d="M80.8,24.8c-0.1,0.2-0.3,0.4-0.5,0.5c-0.2,0.1-0.4,0.2-0.6,0.3c-0.2,0.1-0.4,0.1-0.7,0
					c-0.2,0-0.5-0.1-0.7-0.2c-0.2-0.1-0.4-0.3-0.6-0.4c-0.2-0.2-0.3-0.3-0.4-0.5s-0.1-0.4-0.1-0.6c0-0.2,0-0.5,0.1-0.7
					c0.1-0.2,0.2-0.4,0.4-0.6c0.2-0.2,0.4-0.3,0.6-0.3c0.2-0.1,0.5-0.1,0.7-0.1c0.3,0,0.5,0.1,0.8,0.2c0.3,0.1,0.5,0.3,0.7,0.5
					c0.2,0.2,0.3,0.4,0.4,0.6c0.1,0.2,0.1,0.4,0.1,0.7C81.1,24.4,81,24.6,80.8,24.8C80.8,24.8,80.8,24.8,80.8,24.8z M80.4,24.5
					c0.1-0.2,0.2-0.4,0.2-0.5c0-0.2,0-0.3,0-0.5c-0.1-0.2-0.1-0.3-0.3-0.4c-0.1-0.1-0.3-0.3-0.5-0.3s-0.4-0.1-0.6-0.2
					c-0.2,0-0.4,0-0.5,0.1c-0.2,0.1-0.3,0.1-0.4,0.3C78.1,23,78,23.2,78,23.4s-0.1,0.4-0.1,0.5c0,0.2,0,0.3,0.1,0.5
					c0.1,0.1,0.1,0.3,0.3,0.4c0.1,0.1,0.3,0.2,0.4,0.3c0.2,0.1,0.3,0.1,0.5,0.2c0.2,0,0.3,0,0.5,0s0.3-0.1,0.4-0.2
					C80.2,24.9,80.3,24.7,80.4,24.5C80.4,24.6,80.4,24.6,80.4,24.5z"/>
			</g>
		</g>
		<path class="st9" d="M67.8,66.3v0.3l0,0.3l0,0.7l0,0.6l0,3.7c-0.5-0.3-1.2-0.3-1.7,0c-0.7,0.5-0.9,1.3-0.5,1.9
			c0.4,0.6,1.2,0.7,1.9,0.2c0.4-0.3,0.7-0.8,0.7-1.2c0,0,0-0.1,0-0.1l0-4.5l3.5,0l0,2.4c-0.5-0.3-1.2-0.3-1.7,0
			c-0.7,0.5-0.9,1.3-0.5,1.9c0.4,0.6,1.2,0.7,1.9,0.2c0.4-0.3,0.7-0.8,0.7-1.2c0,0,0-0.1,0-0.1l0-3.2l0-0.6l0-0.7v-0.3l0-0.3
			L67.8,66.3z M71.7,67.6l-3.5,0l0-0.7l3.5,0L71.7,67.6z"/>
		<g>
			<rect x="49.3" y="66.6" class="st5" width="41.2" height="6.5"/>
			<text transform="matrix(1 0 0 1 53.7921 69.6548)" class="st8 st10 st11">EST.         1930</text>
		</g>
	</g>
</g>
</svg>
